<svg version="1.1" id="Layer_1" xmlns="http://www.w3.org/2000/svg" xmlns:xlink="http://www.w3.org/1999/xlink" x="0px" y="0px"
	 width="100%" viewBox="0 0 512 512" enable-background="new 0 0 512 512" xml:space="preserve">
<path fill="#000000" opacity="1.000000" stroke="none" 
	d="
M127.000000,513.000000 
	C91.312439,513.000000 55.624878,513.000000 19.561604,512.651367 
	C21.723320,505.428040 24.271849,498.557373 26.796112,491.677795 
	C34.388035,470.986816 48.713989,457.357483 70.371727,453.163940 
	C86.007225,450.136444 101.945915,448.536346 118.016731,448.510040 
	C131.005127,448.488800 143.317001,445.197906 155.121078,436.650208 
	C152.830048,437.204895 151.725662,437.421112 150.651718,437.739899 
	C134.161911,442.634308 118.870590,440.099670 105.345284,429.522491 
	C88.165352,416.087280 76.839996,398.882751 73.705597,376.919861 
	C73.155876,373.067963 71.678284,370.298218 68.418541,367.874756 
	C60.315590,361.850647 53.937134,354.368774 49.347630,345.145355 
	C39.558037,325.471466 37.967899,304.239716 36.842846,282.943298 
	C35.794548,263.099884 37.337284,243.371811 40.591755,223.737335 
	C44.714104,198.866959 50.336994,174.409973 60.023651,151.081253 
	C63.582821,142.509583 67.450943,133.838913 75.344933,128.054398 
	C82.932877,122.494125 91.598427,118.947159 100.121140,115.163628 
	C110.169357,110.702866 120.232605,106.438866 128.630005,98.920006 
	C140.045166,88.699112 151.570190,78.556389 163.585983,69.060760 
	C184.323502,52.672684 207.071732,40.661259 234.286392,39.567066 
	C235.498215,39.518345 237.051346,39.645672 237.276031,37.743881 
	C235.983536,36.209221 234.120331,35.800808 232.399963,35.356400 
	C214.526443,30.739275 197.374100,32.875999 181.044647,41.326881 
	C160.959351,51.721493 144.575653,66.573166 131.734085,84.974777 
	C122.741600,97.860733 111.308296,106.533997 96.541306,111.477104 
	C89.588089,113.804626 83.094978,117.337151 77.954285,122.863174 
	C77.436455,123.419846 76.838791,124.146484 75.552475,123.590088 
	C75.676941,121.165436 77.435844,119.547638 78.774208,117.765610 
	C94.325066,97.059837 112.722771,78.882347 130.188660,59.874783 
	C143.907150,44.945381 159.594971,32.908535 178.702927,25.571579 
	C196.844711,18.605608 215.592255,14.615100 234.867798,12.275246 
	C256.095062,9.698470 276.720367,11.511809 296.930359,18.230526 
	C309.571869,22.433136 322.045258,27.530390 335.445770,28.454515 
	C364.605164,30.465405 386.348633,45.393417 404.526703,66.903503 
	C408.672485,71.809143 410.027313,78.410500 413.438599,83.394051 
	C416.780090,88.275627 423.792511,90.373627 427.912140,95.327156 
	C428.125183,95.583298 428.353546,95.826645 428.574097,96.076561 
	C440.386719,109.463776 449.203461,124.628105 455.839233,141.178101 
	C466.810730,168.541580 472.752686,196.978348 472.764130,226.378922 
	C472.768311,237.126678 473.272369,247.395355 476.071167,257.840576 
	C479.085510,269.090057 479.217804,280.866364 479.600830,292.534485 
	C480.009918,304.996399 479.293152,317.208557 473.768127,328.631805 
	C472.162628,331.951233 472.186157,334.732544 473.962524,338.023285 
	C477.938507,345.388977 478.604675,353.043915 473.749695,360.303131 
	C465.025024,373.348358 441.946564,384.230835 423.118042,377.617706 
	C410.319733,373.122528 407.415680,358.063751 417.708649,349.265289 
	C423.531097,344.288269 430.200592,341.007812 438.033020,340.632172 
	C442.068604,340.438629 445.029175,338.571167 446.731537,334.921356 
	C452.262604,323.062744 454.910187,310.711853 453.153503,297.573395 
	C451.884613,288.083282 446.715607,280.589417 441.226196,273.174988 
	C439.984924,271.498444 437.565735,269.941162 439.256836,266.697144 
	C444.395416,267.603149 447.532227,271.376617 450.531372,274.963623 
	C464.823181,292.056854 464.947998,311.656921 460.196228,332.193024 
	C465.039307,326.038177 469.278870,319.589752 470.655579,311.985962 
	C475.737366,283.918518 473.592041,256.575562 461.036407,230.586517 
	C455.760193,219.665192 447.653137,212.153625 435.063721,210.181137 
	C416.272339,207.236954 397.857819,202.744354 380.148224,195.645157 
	C379.532379,195.398300 378.841003,195.477554 378.341187,196.464417 
	C378.651428,198.278702 380.293884,199.248413 381.675568,200.356644 
	C388.373932,205.729324 396.010315,209.442856 403.906067,212.638184 
	C413.504211,216.522446 422.953522,220.673828 431.216644,227.055389 
	C435.184967,230.120117 436.817444,234.485565 434.574768,236.257828 
	C431.036041,239.054276 428.496643,236.376678 425.932617,234.158279 
	C420.561981,229.511597 414.148834,227.501526 406.904175,226.954102 
	C416.428467,237.065857 427.525299,245.641785 433.735809,258.512787 
	C429.707977,260.443115 427.112183,258.267365 424.552277,256.560303 
	C411.595795,247.920319 397.311676,242.618515 382.104950,239.758377 
	C378.586243,239.096558 375.088104,239.291687 374.547089,234.466507 
	C374.175323,231.150940 370.249969,229.301376 371.323883,224.954941 
	C372.656647,219.560760 370.006561,218.067230 364.531250,220.476776 
	C364.553772,220.803223 364.521515,221.148880 364.621338,221.450882 
	C364.777100,221.922089 364.959625,222.407089 365.239014,222.811478 
	C371.539459,231.931320 377.514435,241.080063 375.500641,253.115189 
	C375.004578,256.079773 377.545990,255.984024 379.675446,255.302414 
	C383.180389,254.180603 386.699158,253.466904 390.443634,253.507309 
	C401.413391,253.625702 411.244385,257.639099 420.978485,262.050293 
	C425.268921,263.994568 429.186493,266.520508 432.218597,270.197998 
	C436.137024,274.950500 437.023804,280.292480 435.808197,286.674408 
	C422.587280,276.569336 422.587280,276.569336 416.359741,277.588593 
	C417.868958,280.814575 419.519623,283.828461 420.726898,287.010529 
	C426.680206,302.701874 418.456116,321.611725 402.018768,330.370544 
	C397.022705,333.032776 391.931641,335.561249 387.155121,338.579803 
	C380.881775,342.544403 375.543793,347.587433 372.502960,354.551453 
	C369.607880,361.181732 371.001221,366.238953 376.989105,370.157776 
	C381.020447,372.796112 385.287872,375.110840 389.592468,377.287994 
	C406.250458,385.713196 423.848663,391.015686 442.473999,392.703064 
	C448.385132,393.238525 454.159607,392.335388 459.917389,390.220367 
	C451.271057,403.336273 440.114105,412.761139 424.333832,414.101746 
	C417.738708,414.661987 413.472778,416.592987 409.424408,421.751038 
	C402.892456,430.073181 394.463501,435.575378 383.363586,436.848114 
	C376.168335,437.673187 369.271210,436.337067 361.434784,435.773926 
	C373.231232,443.810760 385.939056,446.943359 398.815033,449.649811 
	C412.117371,452.445862 425.792328,450.549500 439.103638,452.756134 
	C461.307159,456.436829 478.631561,466.329834 485.103485,489.837830 
	C487.264740,497.688171 490.341675,505.286469 493.000000,513.000000 
	C458.979095,513.000000 424.958221,513.000000 390.268250,512.735229 
	C386.345673,509.341339 383.397858,505.949768 381.039764,502.092712 
	C375.553406,493.118896 368.801300,485.051727 362.810303,476.444061 
	C360.913025,473.718079 359.040771,473.140625 356.123993,474.483490 
	C352.496857,476.153442 348.837402,477.806580 345.066925,479.103699 
	C300.728119,494.356537 255.339554,495.857727 209.489868,488.560944 
	C192.584290,485.870575 175.787140,482.115082 159.873184,475.399933 
	C155.881592,473.715637 153.354706,474.638794 151.558563,478.723236 
	C149.890457,482.516510 147.630447,486.048828 145.642822,489.702423 
	C140.814316,498.578003 133.651871,505.584381 127.000000,513.000000 
M419.064301,118.448799 
	C413.828522,113.541206 408.346863,108.918594 402.349823,104.976334 
	C381.974823,91.582413 358.837494,84.233055 336.476257,75.234329 
	C327.326813,71.552353 317.662598,70.050804 307.871155,73.018394 
	C306.920044,69.776733 308.274933,67.497414 308.872131,65.150841 
	C309.745056,61.721058 310.346069,58.307026 309.757416,54.782825 
	C308.969879,50.067913 304.966827,45.941795 300.646912,45.319233 
	C296.523804,44.725037 294.805084,46.206951 295.561737,50.265003 
	C297.530853,60.825882 297.572540,71.486343 297.262207,82.135147 
	C296.947937,92.921074 293.499054,102.923492 288.943970,112.674706 
	C287.834045,112.426979 287.106445,112.443016 286.586456,112.122353 
	C274.508026,104.674019 261.020203,103.796356 247.479385,104.454124 
	C217.267395,105.921715 193.917786,119.330444 179.225739,146.154556 
	C170.058960,162.890823 170.029861,182.543198 163.088120,200.051224 
	C162.652573,201.149734 163.134842,202.055130 164.217941,202.448563 
	C165.247696,202.822617 166.282135,202.547577 166.837997,201.583481 
	C167.412399,200.587219 167.667938,199.410721 168.212036,198.392746 
	C170.283691,194.516815 175.094543,192.553162 178.136169,194.684097 
	C184.789536,199.345352 192.343048,201.961441 199.848068,204.676178 
	C213.419128,209.585144 226.764832,214.753967 235.385254,227.403931 
	C237.015457,229.796173 239.555969,230.141724 242.105957,229.324860 
	C247.805969,227.498962 253.465256,227.451126 259.344452,228.537292 
	C263.380524,229.282944 267.673706,229.710571 270.933838,225.932373 
	C281.826141,213.309113 295.938385,206.367325 311.943604,202.714905 
	C315.658783,201.867081 319.327087,200.754456 322.130463,197.802963 
	C328.753052,190.830551 328.785980,190.860535 336.662476,196.880295 
	C337.986328,197.892059 339.243011,199.004807 340.633270,199.914154 
	C345.585999,203.153610 349.394043,207.954559 355.363098,210.968948 
	C354.897583,207.337662 353.518280,204.696426 352.280609,202.061813 
	C345.482422,187.590958 338.273041,173.303085 331.851929,158.668472 
	C326.449921,146.356659 322.605225,133.719604 332.829224,121.570206 
	C334.737579,119.302483 333.921997,117.548622 330.794128,117.214546 
	C327.250946,116.836113 324.223755,117.675453 321.875275,120.562126 
	C320.722778,121.978729 319.337799,123.683983 317.384918,121.689445 
	C314.285400,118.523788 311.332581,115.214539 308.093353,111.724335 
	C314.093079,105.874367 319.318237,100.008476 325.934021,95.738182 
	C333.445160,90.889915 341.493073,89.277245 350.239838,92.305984 
	C366.128265,97.807686 382.084045,103.115051 397.971497,108.619621 
	C402.225342,110.093452 406.339539,111.999092 409.481171,115.413216 
	C410.625183,116.656494 411.614288,118.127304 410.931824,119.918823 
	C410.239502,121.736153 408.453033,121.241188 407.035950,121.398857 
	C386.203552,123.716629 365.374634,126.068443 344.530579,128.276581 
	C340.846863,128.666809 339.353119,129.908661 340.706970,133.709976 
	C344.624847,144.710510 348.824249,155.553604 355.178772,165.460693 
	C358.489227,170.621933 362.416962,175.044647 367.868011,177.904907 
	C390.618225,189.842270 414.749695,194.836929 440.300720,191.391953 
	C455.359070,189.361679 457.474274,185.627518 453.481079,171.022446 
	C447.741486,150.030182 434.917206,133.667633 419.064301,118.448799 
M239.421875,284.671539 
	C229.241470,314.327179 195.523605,337.822632 152.289139,313.632629 
	C152.253113,313.946594 152.103867,314.297180 152.202637,314.551453 
	C152.624115,315.636444 153.023438,316.747833 153.600800,317.751831 
	C171.050095,348.095673 189.247223,377.744934 212.653015,404.227142 
	C234.167084,428.569000 272.580536,426.602386 290.817993,413.263550 
	C315.004730,395.573395 337.050140,375.571106 349.092804,346.859772 
	C354.944885,332.907501 360.457123,318.897552 364.777069,303.230225 
	C362.836426,304.938385 361.712463,305.864685 360.658722,306.864960 
	C350.440247,316.565247 338.635254,322.423401 324.360931,324.000427 
	C301.688599,326.505157 275.595367,311.843079 266.469879,290.895172 
	C262.460114,281.690674 260.993011,272.117767 260.640717,262.215576 
	C260.457397,257.063812 255.903839,253.835861 250.018723,254.289352 
	C244.673691,254.701233 241.951920,257.844452 242.536972,263.312744 
	C243.299927,270.443695 241.787781,277.211853 239.421875,284.671539 
M165.879593,459.394165 
	C166.366333,460.881195 167.715652,461.240051 168.959991,461.654999 
	C187.788879,467.933838 207.007233,472.721161 226.775360,474.518280 
	C247.001999,476.357147 267.276154,476.723022 287.595947,474.817841 
	C307.607880,472.941528 326.972321,468.581177 345.840546,461.827393 
	C351.357025,459.852753 351.472595,459.104401 348.598724,453.924744 
	C340.090118,438.589294 334.793518,422.285461 333.487915,404.699707 
	C333.228729,401.208099 333.793671,397.395081 331.704987,394.206726 
	C329.302887,393.968231 328.164612,395.574738 326.863159,396.785645 
	C321.987122,401.322540 317.087708,405.837555 312.317505,410.484375 
	C295.253082,427.107605 275.704773,437.209320 251.013443,435.446167 
	C235.784500,434.358704 222.312820,430.161041 211.984787,418.270569 
	C206.962860,412.488892 201.801056,406.826935 196.618942,401.187653 
	C195.445801,399.910980 194.739807,397.968964 192.560516,397.730560 
	C192.264984,398.178070 191.831451,398.558044 191.757660,398.998322 
	C191.539230,400.301788 191.452133,401.628082 191.332489,402.947174 
	C189.589737,422.158997 184.239090,439.848328 170.016830,453.847412 
	C168.494827,455.345551 166.720612,456.685883 165.879593,459.394165 
M319.599243,217.957092 
	C290.538666,220.262375 273.696075,238.257706 274.349762,266.868347 
	C275.052979,297.647491 308.448578,315.742523 329.628357,309.346710 
	C353.165710,302.238953 368.308990,281.435608 365.639008,256.949615 
	C363.190765,234.496628 345.169098,218.902145 319.599243,217.957092 
M60.309845,251.257950 
	C62.311291,272.456146 72.194733,289.789307 86.690193,304.817993 
	C91.779770,310.094818 96.965340,310.685547 103.348488,307.166107 
	C114.958199,300.764984 120.246361,289.705780 124.957947,278.167175 
	C126.256454,274.987183 126.828773,271.926544 125.891426,268.483490 
	C124.828568,264.579346 124.932213,260.733063 126.862778,256.862061 
	C130.281998,250.006149 126.667557,243.658401 118.951965,242.249283 
	C113.004738,241.163116 106.999695,241.471786 101.013245,241.379440 
	C95.588745,241.295746 90.458603,239.964600 85.565071,237.780899 
	C82.255165,236.303879 79.329407,234.183121 79.804062,229.946625 
	C80.279739,225.700943 83.586884,224.546066 87.151932,223.619141 
	C90.313377,222.797165 93.759644,223.376022 96.986908,221.720383 
	C96.844162,220.780746 96.853226,219.942856 96.580620,219.209702 
	C95.660027,216.733734 95.288681,214.319244 97.284935,212.197983 
	C99.462173,209.884460 101.903122,211.166595 104.259415,211.873566 
	C105.213844,212.159943 106.138420,212.550797 107.066254,212.920074 
	C114.556252,215.901001 118.286423,214.719513 122.593689,207.921173 
	C134.087234,189.780472 137.134750,168.782684 142.571274,148.599579 
	C143.072052,146.740417 142.531067,144.956131 140.428848,144.074158 
	C138.392578,143.219849 136.771927,143.973068 135.554642,145.487595 
	C134.208252,147.162781 133.027069,148.989929 131.932999,150.844727 
	C129.651398,154.712784 127.591606,158.701935 124.758743,162.237534 
	C115.628265,173.633026 103.473320,180.596390 90.325226,186.267029 
	C79.361298,190.995651 69.776253,197.568909 65.128075,209.175232 
	C59.825390,222.415894 58.692757,236.259811 60.309845,251.257950 
M140.533722,265.963440 
	C142.532928,280.409515 148.511765,292.432709 160.501602,301.443115 
	C180.040878,316.126984 209.385193,311.044861 222.382462,290.329865 
	C236.658920,267.576111 231.953415,241.986801 210.066467,226.448456 
	C196.478775,216.802078 180.685059,214.119751 166.040085,221.661865 
	C149.301575,230.282150 139.211380,244.851089 140.533722,265.963440 
M100.944298,369.569824 
	C107.265190,372.115021 113.980957,372.053284 120.608162,372.427155 
	C124.172218,372.628204 126.830231,373.872528 127.673065,377.484772 
	C128.590576,381.417023 125.796120,383.376221 122.878441,384.691498 
	C118.263641,386.771790 113.367676,387.389496 108.257622,386.726501 
	C101.592796,385.861847 95.623367,383.069061 88.950981,379.890350 
	C94.851952,399.370117 104.171967,415.376343 121.735886,425.362305 
	C129.077911,429.536621 136.916168,430.896210 145.319107,428.752411 
	C156.907745,425.795868 169.879181,412.472504 170.647079,402.308960 
	C171.733734,387.926483 166.799011,375.787659 156.459717,365.931091 
	C143.903824,353.961365 127.921791,350.809143 111.471588,349.377136 
	C97.075974,348.123962 86.426758,342.086945 81.600197,327.760040 
	C80.698090,325.082245 79.719345,322.405029 78.485199,319.869049 
	C74.461571,311.601105 70.111320,303.504639 62.267258,298.119904 
	C59.994293,296.559601 57.244595,294.570679 54.464787,296.340393 
	C51.697399,298.102234 52.308781,301.277527 52.785507,304.116852 
	C53.005547,305.427368 53.170063,306.747223 53.358482,308.063049 
	C57.534657,337.225952 72.030052,358.488068 100.944298,369.569824 
M215.731277,72.024292 
	C236.682632,65.005096 258.131561,66.011612 279.715790,68.328964 
	C270.953888,63.187134 261.442596,60.941639 251.680679,59.924038 
	C236.855042,58.378586 222.279938,58.261646 208.158432,64.891823 
	C188.285004,74.222588 170.589981,87.005623 152.320557,98.862137 
	C134.459213,110.453827 117.931046,124.116348 98.678032,133.543015 
	C77.016190,144.149109 66.824028,163.215851 59.845814,185.561798 
	C72.061028,171.862839 89.496010,164.764389 97.592079,170.085037 
	C95.324738,174.857605 88.811935,172.372208 86.132828,176.440613 
	C92.717537,181.584213 110.884216,169.633774 114.531754,157.796570 
	C111.568001,157.964157 109.534622,159.516815 107.607216,161.361099 
	C105.765244,163.123627 105.378021,166.221344 102.541306,167.155090 
	C97.634804,157.888199 100.241302,150.504562 109.518547,146.965256 
	C111.384933,146.253220 113.279694,145.615768 115.148689,144.910309 
	C131.426346,138.766312 145.805374,130.631866 156.026093,115.410751 
	C170.290390,94.167786 190.443405,79.994919 215.731277,72.024292 
M161.695328,177.265945 
	C162.031006,175.133484 162.376160,173.002457 162.700790,170.868317 
	C164.653503,158.031158 166.119553,145.015289 173.210022,133.677002 
	C187.055542,111.536812 208.733871,101.876480 233.072250,96.709946 
	C244.389252,94.307594 255.920670,94.562752 267.415924,94.622978 
	C270.498688,94.639130 273.533173,94.453484 276.695679,91.945625 
	C267.697266,88.516815 259.049316,86.754219 250.269669,86.453949 
	C211.661514,85.133492 183.735367,103.380074 163.782944,135.095596 
	C152.531204,152.980896 150.618179,174.019775 145.611435,193.974411 
	C145.003647,196.396744 145.938446,198.732071 148.315048,199.888214 
	C150.936401,201.163376 152.364243,198.975616 153.627243,197.336319 
	C158.001022,191.659409 159.903763,184.912888 161.695328,177.265945 
M375.390930,67.970627 
	C382.341339,70.904121 389.291718,73.837616 397.226654,77.186646 
	C393.819427,72.315941 390.195160,69.457748 386.222961,66.962868 
	C381.991577,64.305206 377.705597,61.721558 373.597443,58.882771 
	C357.730133,47.918224 340.487885,41.127102 320.925659,41.486370 
	C318.895203,41.523659 315.135223,39.548767 315.189301,43.826790 
	C315.232574,47.252254 314.928497,51.923161 319.926086,52.515743 
	C338.970398,54.773907 356.683807,61.699005 375.390930,67.970627 
M359.174805,407.315155 
	C364.028290,416.695251 371.249939,422.759674 382.215149,422.947784 
	C390.171478,423.084259 396.928345,420.188232 402.286621,413.919434 
	C401.507202,413.215698 401.183990,412.662292 400.791321,412.607635 
	C391.045532,411.250519 383.704895,405.874756 377.116913,398.951843 
	C372.114075,393.694641 365.595886,392.014465 358.472931,392.205933 
	C355.142883,392.295410 353.802521,393.563049 355.094391,396.889709 
	C356.356293,400.139191 357.580383,403.403320 359.174805,407.315155 
M136.913910,227.459702 
	C138.596664,225.170944 141.073685,223.243423 140.598984,219.896698 
	C136.395859,219.374146 129.849030,224.592285 129.673721,228.411423 
	C129.589554,230.244751 130.770767,230.684174 132.248032,230.446075 
	C133.926010,230.175568 135.227356,229.131805 136.913910,227.459702 
M150.609283,213.621567 
	C150.090912,215.890900 151.323471,217.016296 153.316391,217.289856 
	C154.381393,217.436066 155.331009,216.459442 155.041779,215.432938 
	C154.496292,213.497009 153.157135,212.458038 150.609283,213.621567 
z"/>
<path fill="#000000" opacity="1.000000" stroke="none" 
	d="
M304.988953,367.016052 
	C298.378479,373.129333 292.599701,379.640778 285.413849,384.586243 
	C266.843079,397.367065 247.796066,397.266235 228.547958,386.381866 
	C217.519318,380.145416 210.357803,369.503906 200.766525,362.098816 
	C201.053909,361.057220 201.041855,360.563782 201.241974,360.452728 
	C211.238602,354.905670 220.340424,347.695801 231.465179,344.240906 
	C237.192001,342.462402 243.041992,341.987000 248.663239,343.984467 
	C252.689026,345.415039 256.287537,344.999634 260.282410,344.182953 
	C267.045410,342.800385 273.929230,343.442535 280.584747,345.078644 
	C291.901459,347.860718 300.926758,355.276611 311.394501,360.072815 
	C309.730499,363.333557 307.246765,364.829895 304.988953,367.016052 
z"/>
</svg>