<?xml version="1.0" encoding="UTF-8" standalone="no" ?>
<!DOCTYPE svg PUBLIC "-//W3C//DTD SVG 1.1//EN" "http://www.w3.org/Graphics/SVG/1.1/DTD/svg11.dtd">
<svg xmlns="http://www.w3.org/2000/svg" xmlns:xlink="http://www.w3.org/1999/xlink" version="1.1" width="1080" height="1080" viewBox="0 0 1080 1080" xml:space="preserve">
<desc>Created with Fabric.js 5.2.4</desc>
<defs>
</defs>
<rect x="0" y="0" width="100%" height="100%" fill="transparent"></rect>
<g transform="matrix(1 0 0 1 540 540)" id="987942cc-ff81-4ad9-98b5-bce65f6eefdd"  >
</g>
<g transform="matrix(1 0 0 1 540 540)" id="57f337d8-c909-49a6-908b-81066dd129fb"  >
<rect style="stroke: none; stroke-width: 1; stroke-dasharray: none; stroke-linecap: butt; stroke-dashoffset: 0; stroke-linejoin: miter; stroke-miterlimit: 4; fill: rgb(255,255,255); fill-rule: nonzero; opacity: 1; visibility: hidden;" vector-effect="non-scaling-stroke"  x="-540" y="-540" rx="0" ry="0" width="1080" height="1080" />
</g>
<g transform="matrix(1 0 0 1 540 540)"  >
<g style="" vector-effect="non-scaling-stroke"   >
		<g transform="matrix(5 0 0 5 0 0)"  >
<path style="stroke: none; stroke-width: 1; stroke-dasharray: none; stroke-linecap: butt; stroke-dashoffset: 0; stroke-linejoin: miter; stroke-miterlimit: 4; fill: rgb(0,0,0); fill-rule: nonzero; opacity: 1;" vector-effect="non-scaling-stroke"  transform=" translate(-6.51, -6.65)" d="M 3.226562 13.023438 C 2.320312 13.023438 1.414062 13.023438 0.496094 13.015625 C 0.550781 12.832031 0.617188 12.660156 0.679688 12.484375 C 0.875 11.957031 1.238281 11.613281 1.785156 11.507812 C 2.183594 11.429688 2.589844 11.386719 2.996094 11.386719 C 3.328125 11.386719 3.640625 11.304688 3.9375 11.085938 C 3.878906 11.101562 3.851562 11.105469 3.824219 11.113281 C 3.40625 11.238281 3.019531 11.175781 2.675781 10.90625 C 2.238281 10.566406 1.949219 10.128906 1.871094 9.570312 C 1.859375 9.472656 1.820312 9.402344 1.738281 9.339844 C 1.53125 9.1875 1.371094 8.996094 1.253906 8.761719 C 1.003906 8.265625 0.964844 7.726562 0.933594 7.183594 C 0.910156 6.679688 0.949219 6.179688 1.03125 5.679688 C 1.136719 5.050781 1.277344 4.429688 1.523438 3.835938 C 1.613281 3.617188 1.710938 3.398438 1.914062 3.25 C 2.105469 3.109375 2.324219 3.019531 2.542969 2.925781 C 2.796875 2.8125 3.054688 2.703125 3.265625 2.511719 C 3.554688 2.253906 3.847656 1.996094 4.152344 1.753906 C 4.679688 1.335938 5.257812 1.03125 5.949219 1.003906 C 5.980469 1.003906 6.019531 1.007812 6.023438 0.957031 C 5.992188 0.917969 5.945312 0.910156 5.902344 0.898438 C 5.445312 0.78125 5.011719 0.835938 4.597656 1.050781 C 4.085938 1.3125 3.671875 1.691406 3.34375 2.15625 C 3.117188 2.484375 2.828125 2.703125 2.453125 2.832031 C 2.273438 2.890625 2.109375 2.980469 1.980469 3.121094 C 1.964844 3.132812 1.949219 3.152344 1.917969 3.136719 C 1.921875 3.078125 1.964844 3.035156 2 2.988281 C 2.394531 2.464844 2.863281 2.003906 3.304688 1.519531 C 3.652344 1.140625 4.050781 0.835938 4.539062 0.648438 C 4.996094 0.472656 5.472656 0.371094 5.964844 0.3125 C 6.503906 0.246094 7.027344 0.292969 7.539062 0.460938 C 7.859375 0.570312 8.175781 0.699219 8.515625 0.722656 C 9.257812 0.773438 9.808594 1.152344 10.269531 1.699219 C 10.375 1.824219 10.410156 1.992188 10.496094 2.117188 C 10.582031 2.242188 10.761719 2.292969 10.863281 2.421875 C 10.871094 2.425781 10.875 2.433594 10.882812 2.4375 C 11.183594 2.78125 11.40625 3.164062 11.574219 3.585938 C 11.851562 4.28125 12.003906 5 12.003906 5.746094 C 12.003906 6.019531 12.015625 6.28125 12.085938 6.546875 C 12.164062 6.832031 12.167969 7.132812 12.175781 7.425781 C 12.1875 7.742188 12.167969 8.054688 12.027344 8.34375 C 11.988281 8.429688 11.988281 8.5 12.035156 8.582031 C 12.136719 8.769531 12.152344 8.964844 12.027344 9.148438 C 11.808594 9.480469 11.222656 9.757812 10.742188 9.589844 C 10.417969 9.472656 10.34375 9.089844 10.605469 8.867188 C 10.753906 8.742188 10.921875 8.660156 11.121094 8.648438 C 11.222656 8.644531 11.300781 8.597656 11.34375 8.503906 C 11.484375 8.203125 11.550781 7.890625 11.503906 7.554688 C 11.472656 7.316406 11.34375 7.125 11.203125 6.9375 C 11.171875 6.894531 11.109375 6.855469 11.152344 6.773438 C 11.285156 6.792969 11.363281 6.890625 11.4375 6.980469 C 11.800781 7.414062 11.804688 7.914062 11.683594 8.433594 C 11.808594 8.277344 11.914062 8.113281 11.949219 7.921875 C 12.078125 7.207031 12.023438 6.515625 11.707031 5.855469 C 11.570312 5.578125 11.367188 5.386719 11.046875 5.335938 C 10.570312 5.261719 10.101562 5.148438 9.652344 4.96875 C 9.636719 4.960938 9.617188 4.964844 9.605469 4.988281 C 9.613281 5.035156 9.65625 5.058594 9.691406 5.085938 C 9.859375 5.222656 10.054688 5.316406 10.253906 5.398438 C 10.5 5.496094 10.738281 5.601562 10.949219 5.765625 C 11.050781 5.84375 11.089844 5.953125 11.035156 6 C 10.945312 6.070312 10.878906 6 10.816406 5.945312 C 10.679688 5.828125 10.515625 5.777344 10.332031 5.761719 C 10.574219 6.019531 10.855469 6.238281 11.011719 6.5625 C 10.910156 6.613281 10.84375 6.558594 10.78125 6.515625 C 10.449219 6.292969 10.089844 6.160156 9.703125 6.085938 C 9.613281 6.070312 9.523438 6.074219 9.511719 5.953125 C 9.5 5.867188 9.402344 5.820312 9.429688 5.710938 C 9.460938 5.574219 9.394531 5.535156 9.253906 5.597656 C 9.257812 5.605469 9.253906 5.613281 9.257812 5.621094 C 9.261719 5.632812 9.265625 5.648438 9.273438 5.65625 C 9.433594 5.890625 9.585938 6.121094 9.535156 6.425781 C 9.523438 6.503906 9.585938 6.5 9.640625 6.480469 C 9.730469 6.453125 9.820312 6.4375 9.914062 6.4375 C 10.191406 6.441406 10.441406 6.542969 10.6875 6.652344 C 10.796875 6.703125 10.898438 6.765625 10.972656 6.859375 C 11.074219 6.980469 11.097656 7.117188 11.066406 7.277344 C 10.730469 7.023438 10.730469 7.023438 10.570312 7.046875 C 10.609375 7.128906 10.652344 7.207031 10.683594 7.289062 C 10.832031 7.6875 10.625 8.164062 10.207031 8.386719 C 10.082031 8.457031 9.953125 8.519531 9.832031 8.597656 C 9.671875 8.699219 9.535156 8.824219 9.457031 9.003906 C 9.382812 9.171875 9.421875 9.300781 9.570312 9.398438 C 9.675781 9.464844 9.78125 9.523438 9.890625 9.578125 C 10.316406 9.792969 10.761719 9.929688 11.234375 9.972656 C 11.386719 9.984375 11.53125 9.960938 11.675781 9.90625 C 11.457031 10.242188 11.175781 10.480469 10.773438 10.515625 C 10.605469 10.527344 10.5 10.578125 10.394531 10.707031 C 10.230469 10.917969 10.015625 11.058594 9.734375 11.09375 C 9.550781 11.113281 9.375 11.078125 9.175781 11.066406 C 9.476562 11.269531 9.800781 11.347656 10.125 11.417969 C 10.464844 11.488281 10.8125 11.441406 11.148438 11.496094 C 11.710938 11.589844 12.152344 11.839844 12.316406 12.4375 C 12.371094 12.636719 12.449219 12.828125 12.515625 13.023438 C 11.652344 13.023438 10.789062 13.023438 9.910156 13.019531 C 9.808594 12.933594 9.734375 12.847656 9.675781 12.75 C 9.535156 12.519531 9.363281 12.316406 9.210938 12.097656 C 9.164062 12.027344 9.117188 12.011719 9.042969 12.046875 C 8.949219 12.089844 8.855469 12.132812 8.761719 12.164062 C 7.636719 12.550781 6.484375 12.589844 5.320312 12.40625 C 4.890625 12.335938 4.464844 12.242188 4.058594 12.070312 C 3.957031 12.027344 3.894531 12.050781 3.847656 12.15625 C 3.804688 12.25 3.75 12.339844 3.699219 12.433594 C 3.574219 12.660156 3.394531 12.835938 3.226562 13.023438 z M 10.640625 3.007812 C 10.507812 2.882812 10.367188 2.765625 10.214844 2.664062 C 9.699219 2.324219 9.109375 2.140625 8.542969 1.910156 C 8.3125 1.816406 8.066406 1.777344 7.816406 1.855469 C 7.792969 1.773438 7.828125 1.714844 7.84375 1.652344 C 7.863281 1.566406 7.878906 1.480469 7.863281 1.390625 C 7.84375 1.269531 7.742188 1.167969 7.632812 1.152344 C 7.527344 1.136719 7.484375 1.171875 7.503906 1.277344 C 7.554688 1.542969 7.554688 1.816406 7.546875 2.085938 C 7.539062 2.359375 7.453125 2.613281 7.335938 2.859375 C 7.308594 2.855469 7.289062 2.855469 7.277344 2.847656 C 6.96875 2.65625 6.628906 2.636719 6.285156 2.652344 C 5.515625 2.6875 4.921875 3.03125 4.550781 3.710938 C 4.316406 4.136719 4.316406 4.636719 4.140625 5.078125 C 4.128906 5.105469 4.140625 5.128906 4.167969 5.140625 C 4.195312 5.148438 4.222656 5.144531 4.234375 5.117188 C 4.25 5.09375 4.257812 5.0625 4.269531 5.039062 C 4.324219 4.9375 4.445312 4.890625 4.523438 4.941406 C 4.691406 5.0625 4.882812 5.128906 5.074219 5.195312 C 5.417969 5.320312 5.757812 5.453125 5.976562 5.773438 C 6.019531 5.835938 6.082031 5.84375 6.148438 5.824219 C 6.292969 5.777344 6.4375 5.773438 6.585938 5.800781 C 6.6875 5.820312 6.796875 5.832031 6.878906 5.738281 C 7.15625 5.417969 7.515625 5.238281 7.921875 5.148438 C 8.015625 5.125 8.109375 5.097656 8.179688 5.023438 C 8.347656 4.84375 8.347656 4.847656 8.546875 5 C 8.582031 5.023438 8.613281 5.054688 8.648438 5.074219 C 8.773438 5.15625 8.871094 5.28125 9.023438 5.355469 C 9.011719 5.265625 8.976562 5.199219 8.945312 5.128906 C 8.773438 4.761719 8.589844 4.398438 8.425781 4.027344 C 8.289062 3.714844 8.191406 3.394531 8.449219 3.085938 C 8.5 3.027344 8.476562 2.984375 8.398438 2.976562 C 8.308594 2.964844 8.230469 2.988281 8.171875 3.0625 C 8.144531 3.097656 8.109375 3.140625 8.058594 3.089844 C 7.980469 3.007812 7.90625 2.925781 7.824219 2.835938 C 7.976562 2.6875 8.109375 2.539062 8.277344 2.429688 C 8.464844 2.308594 8.671875 2.265625 8.894531 2.34375 C 9.296875 2.484375 9.703125 2.617188 10.105469 2.757812 C 10.210938 2.796875 10.316406 2.84375 10.398438 2.929688 C 10.425781 2.960938 10.449219 3 10.433594 3.042969 C 10.417969 3.089844 10.371094 3.078125 10.335938 3.082031 C 9.804688 3.140625 9.277344 3.199219 8.746094 3.257812 C 8.65625 3.265625 8.617188 3.296875 8.652344 3.394531 C 8.75 3.675781 8.855469 3.949219 9.019531 4.199219 C 9.101562 4.332031 9.203125 4.445312 9.339844 4.515625 C 9.917969 4.820312 10.53125 4.945312 11.179688 4.859375 C 11.5625 4.808594 11.617188 4.714844 11.515625 4.34375 C 11.367188 3.808594 11.042969 3.394531 10.640625 3.007812 z M 6.078125 7.226562 C 5.820312 7.980469 4.964844 8.578125 3.867188 7.964844 C 3.867188 7.972656 3.863281 7.980469 3.863281 7.988281 C 3.875 8.015625 3.886719 8.042969 3.898438 8.066406 C 4.34375 8.839844 4.804688 9.589844 5.398438 10.261719 C 5.945312 10.882812 6.921875 10.832031 7.382812 10.492188 C 8 10.042969 8.558594 9.535156 8.863281 8.808594 C 9.011719 8.453125 9.152344 8.097656 9.261719 7.699219 C 9.210938 7.742188 9.183594 7.765625 9.15625 7.792969 C 8.898438 8.039062 8.597656 8.1875 8.234375 8.226562 C 7.660156 8.289062 6.996094 7.917969 6.765625 7.386719 C 6.664062 7.152344 6.625 6.910156 6.617188 6.65625 C 6.613281 6.527344 6.496094 6.445312 6.347656 6.457031 C 6.210938 6.46875 6.144531 6.546875 6.15625 6.6875 C 6.175781 6.867188 6.140625 7.039062 6.078125 7.226562 z M 4.210938 11.664062 C 4.222656 11.703125 4.257812 11.710938 4.289062 11.722656 C 4.769531 11.882812 5.257812 12.003906 5.757812 12.046875 C 6.273438 12.09375 6.785156 12.105469 7.300781 12.054688 C 7.808594 12.007812 8.300781 11.898438 8.78125 11.726562 C 8.921875 11.675781 8.925781 11.65625 8.851562 11.527344 C 8.636719 11.136719 8.5 10.722656 8.46875 10.277344 C 8.460938 10.1875 8.476562 10.089844 8.421875 10.007812 C 8.359375 10.003906 8.332031 10.042969 8.300781 10.074219 C 8.175781 10.191406 8.050781 10.304688 7.929688 10.421875 C 7.496094 10.84375 7 11.101562 6.375 11.054688 C 5.988281 11.027344 5.644531 10.921875 5.382812 10.621094 C 5.253906 10.472656 5.125 10.328125 4.992188 10.1875 C 4.960938 10.152344 4.945312 10.105469 4.890625 10.097656 C 4.882812 10.109375 4.871094 10.121094 4.867188 10.128906 C 4.863281 10.164062 4.859375 10.199219 4.859375 10.230469 C 4.8125 10.71875 4.679688 11.167969 4.316406 11.523438 C 4.277344 11.5625 4.234375 11.59375 4.210938 11.664062 z M 8.113281 5.535156 C 7.378906 5.59375 6.949219 6.050781 6.964844 6.777344 C 6.984375 7.558594 7.832031 8.015625 8.371094 7.855469 C 8.96875 7.675781 9.351562 7.144531 9.285156 6.523438 C 9.222656 5.953125 8.765625 5.558594 8.113281 5.535156 z M 1.53125 6.378906 C 1.582031 6.917969 1.832031 7.359375 2.199219 7.738281 C 2.332031 7.875 2.460938 7.886719 2.625 7.800781 C 2.917969 7.636719 3.054688 7.355469 3.171875 7.0625 C 3.207031 6.980469 3.21875 6.90625 3.195312 6.816406 C 3.167969 6.71875 3.171875 6.621094 3.222656 6.523438 C 3.308594 6.347656 3.214844 6.1875 3.019531 6.152344 C 2.871094 6.125 2.714844 6.132812 2.566406 6.128906 C 2.425781 6.125 2.296875 6.09375 2.171875 6.039062 C 2.089844 6 2.015625 5.945312 2.027344 5.839844 C 2.039062 5.730469 2.121094 5.703125 2.210938 5.679688 C 2.292969 5.65625 2.378906 5.671875 2.460938 5.628906 C 2.457031 5.605469 2.460938 5.585938 2.453125 5.566406 C 2.429688 5.503906 2.417969 5.441406 2.46875 5.386719 C 2.527344 5.328125 2.585938 5.363281 2.648438 5.378906 C 2.671875 5.386719 2.695312 5.398438 2.71875 5.40625 C 2.910156 5.480469 3.003906 5.453125 3.113281 5.277344 C 3.40625 4.820312 3.480469 4.285156 3.621094 3.773438 C 3.632812 3.726562 3.617188 3.679688 3.566406 3.65625 C 3.515625 3.636719 3.472656 3.65625 3.441406 3.695312 C 3.40625 3.738281 3.378906 3.78125 3.351562 3.828125 C 3.292969 3.929688 3.238281 4.03125 3.167969 4.121094 C 2.9375 4.410156 2.628906 4.585938 2.292969 4.730469 C 2.015625 4.847656 1.773438 5.015625 1.652344 5.3125 C 1.519531 5.648438 1.492188 6 1.53125 6.378906 z M 3.566406 6.753906 C 3.617188 7.121094 3.769531 7.425781 4.074219 7.652344 C 4.570312 8.027344 5.316406 7.898438 5.644531 7.371094 C 6.007812 6.792969 5.890625 6.144531 5.332031 5.75 C 4.988281 5.503906 4.585938 5.4375 4.214844 5.628906 C 3.789062 5.847656 3.535156 6.21875 3.566406 6.753906 z M 2.5625 9.382812 C 2.722656 9.449219 2.894531 9.445312 3.0625 9.457031 C 3.152344 9.460938 3.21875 9.492188 3.242188 9.585938 C 3.265625 9.683594 3.195312 9.734375 3.121094 9.765625 C 3.003906 9.820312 2.878906 9.835938 2.75 9.820312 C 2.578125 9.796875 2.429688 9.726562 2.257812 9.644531 C 2.410156 10.140625 2.644531 10.546875 3.089844 10.800781 C 3.277344 10.90625 3.476562 10.941406 3.691406 10.886719 C 3.984375 10.8125 4.3125 10.472656 4.332031 10.214844 C 4.359375 9.851562 4.234375 9.542969 3.972656 9.292969 C 3.652344 8.988281 3.246094 8.90625 2.832031 8.871094 C 2.464844 8.839844 2.195312 8.6875 2.070312 8.320312 C 2.050781 8.253906 2.023438 8.1875 1.992188 8.121094 C 1.890625 7.910156 1.78125 7.707031 1.582031 7.570312 C 1.523438 7.53125 1.453125 7.480469 1.382812 7.523438 C 1.3125 7.570312 1.328125 7.648438 1.339844 7.722656 C 1.347656 7.753906 1.351562 7.789062 1.355469 7.820312 C 1.460938 8.5625 1.828125 9.101562 2.5625 9.382812 z M 5.476562 1.828125 C 6.007812 1.652344 6.554688 1.675781 7.101562 1.734375 C 6.878906 1.605469 6.636719 1.546875 6.390625 1.523438 C 6.015625 1.480469 5.644531 1.480469 5.285156 1.648438 C 4.78125 1.882812 4.332031 2.210938 3.867188 2.511719 C 3.414062 2.804688 2.996094 3.152344 2.503906 3.390625 C 1.957031 3.660156 1.695312 4.144531 1.519531 4.710938 C 1.828125 4.363281 2.273438 4.183594 2.476562 4.320312 C 2.421875 4.441406 2.253906 4.375 2.1875 4.480469 C 2.355469 4.609375 2.816406 4.308594 2.90625 4.007812 C 2.832031 4.011719 2.78125 4.050781 2.730469 4.097656 C 2.683594 4.140625 2.675781 4.21875 2.605469 4.246094 C 2.480469 4.007812 2.546875 3.820312 2.78125 3.730469 C 2.828125 3.714844 2.875 3.699219 2.921875 3.679688 C 3.335938 3.523438 3.703125 3.316406 3.960938 2.929688 C 4.324219 2.390625 4.835938 2.03125 5.476562 1.828125 z M 4.105469 4.5 C 4.113281 4.445312 4.121094 4.394531 4.132812 4.339844 C 4.179688 4.011719 4.21875 3.683594 4.398438 3.394531 C 4.75 2.832031 5.300781 2.585938 5.917969 2.457031 C 6.207031 2.394531 6.496094 2.402344 6.789062 2.402344 C 6.867188 2.402344 6.945312 2.398438 7.027344 2.335938 C 6.796875 2.246094 6.578125 2.203125 6.355469 2.195312 C 5.375 2.160156 4.664062 2.625 4.160156 3.429688 C 3.871094 3.882812 3.824219 4.417969 3.695312 4.925781 C 3.683594 4.988281 3.707031 5.046875 3.765625 5.074219 C 3.832031 5.109375 3.867188 5.050781 3.902344 5.011719 C 4.011719 4.867188 4.058594 4.695312 4.105469 4.5 z M 9.53125 1.726562 C 9.707031 1.800781 9.882812 1.875 10.085938 1.960938 C 10 1.835938 9.90625 1.761719 9.804688 1.699219 C 9.699219 1.632812 9.589844 1.566406 9.484375 1.496094 C 9.082031 1.214844 8.644531 1.042969 8.148438 1.054688 C 8.097656 1.054688 8 1.003906 8.003906 1.113281 C 8.003906 1.199219 7.996094 1.320312 8.125 1.332031 C 8.605469 1.390625 9.054688 1.566406 9.53125 1.726562 z M 9.121094 10.34375 C 9.242188 10.582031 9.425781 10.734375 9.703125 10.738281 C 9.90625 10.742188 10.078125 10.667969 10.214844 10.507812 C 10.195312 10.492188 10.1875 10.476562 10.175781 10.476562 C 9.929688 10.441406 9.742188 10.304688 9.574219 10.128906 C 9.449219 9.996094 9.28125 9.953125 9.101562 9.957031 C 9.015625 9.960938 8.984375 9.992188 9.015625 10.078125 C 9.046875 10.160156 9.078125 10.242188 9.121094 10.34375 z M 3.476562 5.773438 C 3.519531 5.71875 3.582031 5.667969 3.570312 5.582031 C 3.464844 5.570312 3.296875 5.703125 3.292969 5.800781 C 3.289062 5.847656 3.320312 5.855469 3.359375 5.851562 C 3.402344 5.84375 3.433594 5.816406 3.476562 5.773438 z M 3.824219 5.425781 C 3.8125 5.480469 3.84375 5.511719 3.894531 5.515625 C 3.917969 5.519531 3.945312 5.496094 3.9375 5.46875 C 3.921875 5.421875 3.890625 5.394531 3.824219 5.425781 z" stroke-linecap="round" />
</g>
		<g transform="matrix(5 0 0 5 -0.02 13.52)"  >
<path style="stroke: none; stroke-width: 1; stroke-dasharray: none; stroke-linecap: butt; stroke-dashoffset: 0; stroke-linejoin: miter; stroke-miterlimit: 4; fill: rgb(0,0,0); fill-rule: nonzero; opacity: 1;" vector-effect="non-scaling-stroke"  transform=" translate(-6.5, -9.36)" d="M 7.742188 9.320312 C 7.574219 9.472656 7.429688 9.640625 7.246094 9.765625 C 6.773438 10.089844 6.292969 10.085938 5.804688 9.808594 C 5.523438 9.652344 5.339844 9.382812 5.097656 9.195312 C 5.105469 9.167969 5.105469 9.15625 5.109375 9.152344 C 5.363281 9.011719 5.59375 8.828125 5.878906 8.742188 C 6.023438 8.695312 6.171875 8.683594 6.3125 8.734375 C 6.414062 8.769531 6.507812 8.757812 6.609375 8.738281 C 6.78125 8.703125 6.957031 8.71875 7.125 8.761719 C 7.410156 8.832031 7.640625 9.019531 7.90625 9.140625 C 7.863281 9.226562 7.800781 9.261719 7.742188 9.320312 z" stroke-linecap="round" />
</g>
</g>
</g>
<g transform="matrix(0.18 0 0 0.18 530.89 539.89)" id="72742979-2e6f-4efa-9cf9-702c887a21da"  >
<circle style="stroke: rgb(0,0,0); stroke-width: 0; stroke-dasharray: none; stroke-linecap: butt; stroke-dashoffset: 0; stroke-linejoin: miter; stroke-miterlimit: 4; fill: rgb(144,184,254); fill-rule: nonzero; opacity: 1;" vector-effect="non-scaling-stroke"  cx="0" cy="0" r="35" />
</g>
<g transform="matrix(0.18 0 0 0.18 548 540)" id="72742979-2e6f-4efa-9cf9-702c887a21da"  >
<circle style="stroke: rgb(0,0,0); stroke-width: 0; stroke-dasharray: none; stroke-linecap: butt; stroke-dashoffset: 0; stroke-linejoin: miter; stroke-miterlimit: 4; fill: rgb(144,184,254); fill-rule: nonzero; opacity: 1;" vector-effect="non-scaling-stroke"  cx="0" cy="0" r="35" />
</g>
<g transform="matrix(NaN NaN NaN NaN 0 0)"  >
<g style=""   >
</g>
</g>
<g transform="matrix(NaN NaN NaN NaN 0 0)"  >
<g style=""   >
</g>
</g>
<g transform="matrix(0.26 0 0 0.26 561.1 562.6)" id="fa156fba-1ef8-40ad-9b76-4610e657a7ba"  >
<path style="stroke: rgb(0,0,0); stroke-width: 0; stroke-dasharray: none; stroke-linecap: butt; stroke-dashoffset: 0; stroke-linejoin: miter; stroke-miterlimit: 4; fill: rgb(253,36,36); fill-rule: nonzero; opacity: 1;" vector-effect="non-scaling-stroke"  transform=" translate(-50, -50)" d="M 16.28 19.945 L 19.957 16.32 C 22.060000000000002 14.166 25.578000000000003 14.166 27.681 16.32 L 50.007000000000005 38.595 L 72.333 16.32 C 74.43599999999999 14.166 77.954 14.166 80.054 16.32 L 83.68 19.945 C 85.834 22.046 85.834 25.566000000000003 83.68 27.668 L 61.405 49.993 L 83.68 72.32 C 85.834 74.422 85.834 77.939 83.68 80.04299999999999 L 80.054 83.72099999999999 C 77.95400000000001 85.82 74.436 85.82 72.333 83.72099999999999 L 50.007 61.393 L 27.681 83.721 C 25.578 85.82000000000001 22.060000000000002 85.82000000000001 19.957 83.721 L 16.28 80.043 C 14.180000000000001 77.93900000000001 14.180000000000001 74.42200000000001 16.28 72.32000000000001 L 38.606 49.99300000000001 L 16.28 27.667 C 14.18 25.566 14.18 22.046 16.28 19.945 z" stroke-linecap="round" />
</g>
</svg>