<?xml version="1.0" standalone="no"?>
<!DOCTYPE svg PUBLIC "-//W3C//DTD SVG 20010904//EN"
 "http://www.w3.org/TR/2001/REC-SVG-20010904/DTD/svg10.dtd">
<svg version="1.0" xmlns="http://www.w3.org/2000/svg"
 width="900.000000pt" height="900.000000pt" viewBox="0 0 900.000000 900.000000"
 preserveAspectRatio="xMidYMid meet">
<metadata>
Created by potrace 1.10, written by Peter Selinger 2001-2011
</metadata>
<g transform="translate(0.000000,900.000000) scale(0.100000,-0.100000)"
fill="#000000" stroke="none">
<path d="M4385 8790 c-11 -5 -58 -9 -105 -10 -47 0 -103 -5 -125 -10 -22 -5
-96 -12 -165 -16 -69 -3 -136 -12 -150 -19 -14 -7 -56 -16 -95 -20 -38 -4 -83
-11 -100 -15 -126 -35 -153 -44 -176 -56 -14 -7 -29 -11 -32 -7 -9 8 -99 -17
-118 -34 -8 -7 -21 -13 -27 -13 -7 0 -20 -4 -30 -9 -9 -6 -44 -18 -77 -27 -33
-10 -69 -23 -80 -31 -11 -7 -26 -13 -33 -13 -21 0 -228 -103 -290 -145 -30
-19 -56 -35 -58 -35 -9 0 -109 -77 -128 -99 -11 -11 -23 -21 -27 -21 -5 0 -35
-26 -67 -57 -32 -32 -77 -71 -100 -87 -23 -16 -42 -32 -42 -35 0 -4 -26 -34
-57 -69 -32 -34 -71 -81 -88 -103 -16 -23 -48 -55 -70 -72 -66 -50 -106 -91
-116 -115 -5 -12 -20 -27 -34 -32 -14 -5 -25 -15 -25 -22 0 -13 -16 -31 -99
-112 -28 -27 -51 -54 -51 -61 0 -6 -34 -44 -75 -84 -41 -40 -75 -78 -75 -84 0
-7 -24 -35 -52 -63 -29 -28 -66 -70 -83 -95 -16 -24 -51 -63 -77 -87 -41 -39
-70 -94 -55 -108 2 -3 26 8 53 23 49 29 162 85 219 109 17 7 46 20 67 28 20 9
39 16 42 16 16 0 149 71 211 112 102 68 123 91 353 393 112 148 356 386 514
503 133 98 361 221 478 259 156 50 216 58 420 58 173 -1 204 -3 275 -24 102
-30 135 -47 135 -70 0 -16 -13 -19 -117 -25 -65 -4 -149 -14 -188 -22 -122
-27 -258 -65 -304 -85 -24 -10 -48 -19 -54 -19 -16 0 -285 -137 -377 -193
-110 -66 -207 -137 -350 -256 -63 -53 -117 -98 -120 -101 -3 -3 -36 -32 -75
-65 -38 -33 -92 -81 -120 -106 -27 -26 -71 -64 -96 -85 -26 -22 -82 -69 -125
-105 -69 -57 -127 -100 -199 -147 -11 -6 -31 -17 -45 -23 -13 -5 -46 -21 -73
-35 -27 -13 -52 -24 -57 -24 -5 0 -53 -21 -107 -46 -54 -25 -118 -55 -143 -66
-217 -98 -360 -184 -398 -239 -9 -13 -22 -30 -28 -36 -7 -7 -15 -27 -19 -45
-4 -18 -15 -42 -24 -53 -10 -11 -25 -40 -35 -65 -31 -77 -74 -171 -111 -240
-13 -25 -24 -57 -24 -71 -1 -15 -8 -32 -16 -39 -9 -8 -15 -30 -15 -57 0 -29
-7 -53 -19 -70 -11 -13 -25 -50 -31 -81 -6 -31 -18 -77 -26 -102 -8 -25 -14
-57 -14 -71 0 -15 -7 -32 -15 -39 -8 -7 -15 -29 -15 -49 0 -21 -7 -46 -15 -57
-8 -10 -15 -38 -15 -61 0 -23 -4 -44 -9 -47 -5 -3 -12 -39 -16 -78 -4 -40 -14
-84 -22 -96 -9 -15 -17 -60 -20 -120 -3 -60 -12 -114 -23 -142 -11 -28 -21
-88 -25 -155 -4 -60 -12 -119 -18 -130 -16 -31 -22 -161 -22 -540 0 -366 6
-510 24 -544 6 -11 11 -44 12 -73 0 -29 4 -75 10 -103 5 -27 14 -84 20 -125
10 -76 81 -299 105 -335 8 -11 14 -28 14 -39 0 -10 16 -41 35 -67 19 -27 35
-55 35 -63 0 -7 11 -29 24 -49 13 -19 27 -44 30 -54 10 -32 211 -223 234 -223
11 0 36 -15 55 -33 30 -28 36 -41 42 -92 3 -33 10 -70 16 -83 5 -13 9 -40 9
-60 1 -20 7 -48 15 -62 8 -14 14 -38 15 -54 0 -16 13 -53 30 -83 16 -29 30
-66 30 -81 0 -17 9 -37 21 -48 11 -10 33 -46 49 -79 15 -33 40 -72 54 -87 13
-16 29 -35 33 -43 5 -8 30 -39 55 -67 26 -29 64 -73 84 -96 21 -24 57 -57 81
-73 23 -16 63 -48 89 -70 56 -48 99 -71 223 -116 94 -34 99 -35 256 -36 167
-1 167 -1 328 56 32 11 60 24 63 28 8 13 64 11 64 -2 0 -17 -88 -91 -139 -117
-25 -13 -53 -30 -62 -38 -8 -8 -20 -14 -26 -14 -6 0 -23 -10 -38 -22 -15 -12
-46 -25 -69 -29 -22 -4 -68 -14 -101 -22 -122 -30 -203 -40 -404 -48 -113 -4
-249 -13 -301 -19 -52 -6 -115 -12 -140 -14 -25 -1 -58 -8 -75 -14 -16 -6 -79
-16 -140 -22 -158 -16 -183 -20 -196 -36 -6 -8 -20 -14 -30 -14 -27 0 -143
-57 -217 -107 -35 -24 -66 -43 -70 -43 -10 0 -133 -129 -160 -167 -12 -18 -22
-37 -22 -43 0 -5 -9 -15 -21 -22 -22 -14 -89 -141 -89 -169 0 -9 -7 -22 -15
-29 -8 -7 -15 -22 -15 -34 0 -12 -7 -31 -15 -42 -8 -10 -15 -29 -15 -41 0 -12
-8 -36 -17 -55 -9 -18 -20 -41 -25 -51 -15 -30 -48 -141 -48 -159 0 -17 51
-18 923 -18 l923 0 70 68 c99 95 145 151 229 277 75 113 91 142 145 258 17 37
38 71 46 74 8 3 52 -9 97 -26 46 -17 87 -31 91 -31 4 0 22 -6 39 -14 18 -8 68
-26 112 -41 75 -25 128 -38 285 -71 36 -7 97 -21 135 -30 342 -78 644 -109
1090 -109 426 0 729 31 1060 110 39 9 97 23 130 30 165 38 278 76 459 154 66
28 122 48 126 44 11 -13 55 -75 95 -133 21 -30 41 -57 45 -60 6 -5 64 -83 136
-182 17 -24 39 -59 50 -78 10 -19 21 -37 24 -40 3 -3 19 -25 35 -49 17 -25 52
-69 79 -98 l48 -53 889 0 c870 0 889 0 889 19 0 11 -6 32 -14 48 -29 59 -46
104 -46 126 -1 12 -9 40 -20 62 -11 22 -19 48 -20 58 0 9 -4 25 -9 35 -19 37
-54 129 -65 170 -7 24 -24 59 -39 77 -15 19 -27 37 -27 40 0 11 -74 120 -84
124 -5 2 -22 17 -39 32 -16 16 -33 29 -37 29 -4 0 -25 14 -46 31 -76 61 -309
152 -358 140 -5 -1 -29 8 -54 19 -41 19 -72 23 -291 31 -135 5 -262 11 -281
14 -19 3 -74 10 -123 14 -48 5 -93 13 -100 18 -11 9 -61 21 -112 27 -11 2 -27
5 -35 9 -8 3 -28 8 -45 11 -54 9 -125 32 -137 44 -7 7 -21 12 -33 12 -12 0
-30 7 -41 15 -10 8 -27 15 -36 15 -9 0 -34 11 -54 25 -20 14 -55 30 -78 36
-71 19 -83 27 -90 55 -9 34 8 47 49 39 63 -13 208 -23 240 -18 19 3 48 0 65
-7 23 -10 34 -10 43 -1 6 6 31 11 57 11 25 1 63 8 85 16 22 9 51 19 65 22 42
11 108 62 211 161 62 60 99 104 103 122 3 15 19 37 36 49 27 19 44 22 159 23
102 2 133 5 147 18 11 9 33 19 49 22 56 11 139 55 209 111 23 18 56 41 74 52
17 10 32 21 32 25 0 3 19 26 43 50 49 49 82 97 74 105 -2 3 -33 -4 -68 -16
-75 -25 -237 -30 -334 -11 -179 37 -214 44 -255 56 -25 7 -72 21 -105 30 -33
9 -75 23 -93 31 -18 8 -40 14 -50 14 -9 0 -30 7 -46 15 -15 8 -32 15 -37 15
-8 0 -36 12 -189 84 -154 72 -295 160 -330 208 -20 28 -24 44 -24 104 0 83 18
132 80 214 47 62 151 156 204 186 19 10 42 24 50 30 8 7 68 39 133 73 66 34
138 75 162 91 68 47 162 157 196 229 17 36 35 73 39 82 4 8 16 61 26 117 17
97 17 104 -1 188 -16 78 -51 160 -91 219 -26 37 -18 55 24 55 109 -2 212 -57
265 -142 10 -16 26 -28 37 -28 18 0 20 7 20 56 0 123 -49 216 -154 293 -69 51
-203 115 -306 146 -47 15 -94 30 -105 35 -49 20 -167 40 -238 40 -75 0 -140
-14 -220 -48 -33 -14 -40 -14 -48 -1 -5 8 -8 75 -7 149 3 126 1 138 -21 180
-37 68 -131 220 -164 263 -43 56 -33 67 62 67 92 0 99 -7 76 -73 -23 -66 -19
-99 15 -132 17 -16 30 -39 30 -53 0 -13 7 -39 16 -58 17 -36 13 -34 149 -54
39 -6 84 -15 100 -20 181 -55 247 -76 285 -92 101 -44 218 -105 275 -143 113
-76 180 -100 203 -72 18 21 -190 288 -285 365 -121 98 -194 174 -191 197 3 21
12 22 68 6 125 -35 220 -82 288 -143 44 -40 59 -48 92 -48 79 0 89 80 17 146
-32 30 -133 104 -142 104 -2 0 -37 19 -77 43 -68 40 -91 51 -208 99 -25 11
-56 24 -70 30 -14 5 -38 16 -55 23 -154 64 -334 172 -394 234 -60 63 -90 101
-81 101 6 0 35 -11 63 -25 191 -90 556 -197 857 -250 90 -16 124 -23 229 -45
150 -33 297 -166 384 -350 98 -208 166 -434 188 -621 37 -331 32 -569 -17
-791 -34 -151 -189 -438 -215 -396 -4 6 -3 20 2 30 62 115 77 472 29 658 -19
72 -88 226 -122 270 -92 119 -195 210 -238 210 -16 0 -31 -4 -34 -9 -3 -5 31
-60 77 -122 136 -187 172 -269 191 -432 10 -86 10 -130 0 -220 -12 -105 -34
-217 -53 -262 -5 -11 -17 -42 -26 -70 -24 -70 -73 -143 -106 -160 -15 -8 -45
-15 -66 -15 -43 0 -158 -29 -215 -54 -104 -45 -203 -129 -240 -204 -18 -37
-23 -63 -22 -122 0 -80 12 -114 66 -182 87 -110 393 -154 583 -83 171 65 302
147 387 245 38 43 47 63 67 145 l23 95 -27 87 c-15 49 -36 107 -46 131 -10 23
-19 50 -19 60 0 20 20 77 38 109 7 12 12 36 12 54 0 18 7 40 15 49 8 9 20 39
26 66 36 168 40 212 40 374 0 173 -21 460 -40 555 -5 28 -10 69 -10 91 -1 23
-7 47 -15 53 -7 6 -16 33 -20 60 -3 27 -13 55 -22 62 -8 7 -12 19 -9 26 2 8 1
22 -4 31 -5 9 -11 197 -13 417 -3 353 -6 403 -20 425 -11 16 -19 58 -24 118
-4 51 -11 95 -15 98 -5 3 -9 20 -9 37 0 18 -7 54 -15 81 -8 27 -15 68 -15 91
0 22 -5 46 -10 51 -6 6 -13 21 -15 35 -3 13 -8 39 -11 57 -3 18 -10 35 -15 38
-5 3 -9 16 -9 29 0 13 -4 26 -9 29 -4 3 -11 23 -15 45 -3 22 -20 69 -36 104
-17 36 -30 74 -30 85 0 11 -7 25 -15 32 -8 7 -15 27 -15 45 0 17 -11 52 -24
76 -51 91 -96 192 -96 215 0 8 -7 17 -15 20 -7 3 -22 27 -31 52 -10 26 -30 63
-46 82 -15 19 -28 40 -28 47 0 6 -6 18 -12 25 -7 7 -28 36 -47 63 -19 28 -39
55 -46 60 -6 6 -18 23 -26 40 -8 16 -26 35 -39 42 -14 7 -36 31 -49 54 -14 23
-40 57 -60 75 -104 95 -125 111 -168 133 -79 40 -93 58 -93 112 0 31 -5 51
-14 56 -8 4 -24 28 -37 53 -12 25 -39 68 -61 96 -21 28 -38 55 -38 61 0 12
-50 58 -72 66 -10 4 -18 15 -18 26 0 13 -18 33 -46 53 -26 18 -79 64 -118 102
-39 38 -89 80 -111 94 -22 14 -63 42 -90 63 -101 76 -252 139 -405 168 -36 7
-69 16 -75 21 -13 10 -166 30 -177 23 -5 -2 -14 0 -21 5 -15 12 -61 21 -167
32 -47 5 -102 16 -122 24 -21 9 -53 16 -73 16 -20 0 -46 6 -58 14 -12 7 -47
21 -77 31 -30 10 -64 21 -75 26 -11 4 -37 10 -57 14 -33 5 -95 30 -138 54 -21
12 -123 41 -146 41 -10 0 -32 7 -48 15 -18 10 -56 15 -105 15 -48 0 -82 5 -89
13 -9 8 -63 14 -160 18 -81 3 -156 9 -167 12 -11 3 -29 2 -40 -3z m1190 -500
c33 -6 125 -15 205 -20 240 -14 417 -75 640 -220 8 -6 24 -15 35 -20 11 -6 32
-18 48 -28 60 -38 216 -138 277 -178 103 -67 230 -194 194 -194 -3 0 -47 20
-97 44 -51 24 -137 62 -192 85 -55 23 -109 46 -120 50 -34 15 -187 68 -260 91
-218 69 -234 74 -370 114 -66 19 -180 41 -286 56 -98 13 -101 15 -121 55 -18
34 -35 175 -22 175 5 0 36 -5 69 -10z m-323 -74 c67 -15 116 -50 150 -103 20
-33 23 -50 22 -128 -1 -57 -7 -103 -17 -127 -9 -21 -19 -58 -23 -84 l-7 -47
39 6 c22 4 62 11 89 17 51 11 122 7 210 -12 74 -16 188 -48 207 -59 10 -5 23
-9 29 -9 6 0 25 -6 42 -14 18 -7 88 -37 157 -65 69 -29 134 -56 145 -61 11 -5
61 -25 110 -45 50 -20 99 -40 110 -45 11 -5 58 -25 105 -44 306 -125 525 -273
795 -540 142 -140 288 -327 384 -491 68 -116 69 -118 85 -162 73 -204 88 -265
90 -369 1 -121 8 -115 -199 -185 -65 -22 -299 -32 -462 -21 -87 6 -174 16
-193 21 -19 5 -62 14 -95 20 -33 6 -89 17 -125 26 -36 9 -85 20 -110 25 -24 6
-49 15 -54 20 -6 6 -16 10 -24 10 -29 0 -269 117 -342 167 -118 82 -254 307
-365 603 -7 19 -27 72 -45 118 -17 46 -29 89 -27 96 3 8 41 18 104 25 54 7
125 16 158 21 33 5 96 12 140 15 44 3 109 10 145 16 36 5 115 14 175 19 61 5
151 13 200 19 50 6 145 16 212 22 99 10 124 16 128 30 17 54 -59 121 -210 184
-22 9 -55 23 -73 31 -18 8 -39 14 -47 14 -8 0 -29 6 -47 14 -18 7 -62 23 -98
34 -36 12 -78 26 -95 32 -16 6 -84 28 -150 49 -66 22 -158 53 -205 71 -149 55
-183 63 -283 67 -100 4 -136 -3 -227 -46 -41 -19 -139 -91 -184 -135 -17 -17
-64 -61 -104 -98 -40 -37 -72 -71 -72 -75 0 -5 41 -50 90 -102 l91 -95 52 52
53 52 74 0 c117 0 122 -13 49 -111 -23 -30 -52 -78 -65 -108 -41 -91 -31 -237
26 -411 14 -41 17 -49 64 -153 20 -42 36 -80 36 -83 0 -4 54 -115 119 -248
119 -242 181 -372 181 -381 0 -5 52 -121 71 -157 12 -23 11 -38 0 -38 -8 0
-75 54 -201 164 -33 29 -218 167 -252 189 -15 9 -35 17 -45 16 -10 0 -45 -33
-79 -72 -60 -71 -62 -72 -160 -104 -54 -18 -126 -40 -159 -48 -220 -58 -374
-147 -553 -322 -59 -57 -118 -107 -132 -110 -14 -4 -61 0 -105 7 -128 21 -210
23 -262 7 -27 -8 -70 -18 -97 -21 -48 -6 -50 -5 -85 35 -91 105 -192 198 -257
237 -68 41 -325 152 -351 152 -7 0 -27 6 -45 14 -18 8 -69 29 -113 46 -115 45
-221 99 -246 127 -13 12 -28 23 -36 23 -23 0 -150 -77 -186 -112 -39 -39 -48
-8 -23 72 8 25 29 92 46 150 18 58 38 125 46 149 8 25 14 55 14 69 0 43 41
209 83 342 50 153 168 347 285 465 96 97 206 193 257 222 35 20 198 100 240
118 211 88 473 121 750 95 164 -16 249 -37 362 -91 55 -27 104 -49 107 -49 4
0 11 12 17 28 49 121 66 170 102 292 21 70 22 94 21 380 0 184 -5 325 -12 355
-21 97 -22 114 -6 130 18 18 15 18 86 1z m-907 -250 c78 -5 116 -11 260 -43
143 -32 325 -101 325 -123 0 -14 -43 -13 -190 4 -413 48 -781 16 -1050 -92
-14 -5 -45 -18 -70 -27 -79 -31 -263 -123 -315 -158 -130 -88 -156 -107 -245
-178 -52 -42 -116 -99 -141 -125 -55 -58 -191 -227 -296 -369 -74 -100 -130
-152 -225 -210 -24 -14 -287 -145 -323 -160 -45 -19 -103 -41 -172 -66 -75
-26 -137 -77 -153 -124 -12 -35 -5 -159 11 -202 12 -31 29 -21 68 41 18 30 43
59 55 65 11 6 39 22 61 36 44 27 75 32 75 12 0 -20 -141 -186 -208 -245 -82
-72 -137 -108 -200 -132 -50 -19 -54 -19 -95 -3 -40 16 -57 29 -57 45 0 10 57
34 101 43 19 3 53 14 77 22 37 14 43 20 40 42 -3 24 -7 26 -63 29 -113 6 -342
-69 -441 -145 -17 -13 -58 -59 -90 -103 -33 -44 -62 -80 -66 -80 -12 0 -9 26
6 62 8 18 25 60 37 93 13 33 27 64 31 69 4 6 8 16 8 23 0 33 102 227 170 322
110 156 250 278 425 371 44 24 106 58 138 77 32 18 60 33 62 33 1 0 30 17 64
38 33 20 99 61 147 91 48 29 140 92 204 140 65 47 127 93 140 101 12 8 50 35
84 60 35 25 95 65 135 90 39 25 140 90 222 145 83 55 160 106 172 113 12 7 90
56 172 107 133 84 296 171 465 248 87 39 175 59 305 66 116 7 172 7 340 -3z
m197 -492 c186 -35 318 -74 318 -93 0 -25 -77 -34 -335 -42 -360 -10 -487 -29
-705 -104 -301 -104 -463 -197 -621 -356 -128 -129 -236 -303 -274 -439 -43
-155 -85 -365 -85 -426 0 -37 -15 -113 -47 -229 -26 -97 -97 -238 -138 -273
-41 -37 -63 -40 -96 -13 -21 17 -24 27 -23 90 0 38 8 96 17 128 9 32 23 94 32
138 9 44 21 98 26 120 6 22 15 60 20 84 5 25 13 59 18 75 5 17 17 58 26 91 37
129 102 300 125 330 4 6 24 42 45 80 20 39 47 81 59 95 12 14 34 43 48 65 41
64 240 267 341 348 90 72 141 108 222 154 38 22 56 31 165 81 25 11 70 27 100
36 30 10 69 21 87 27 17 5 58 15 90 20 32 6 76 15 98 19 77 15 399 11 487 -6z
m-2073 -1000 c20 -15 22 -21 16 -68 -4 -28 -13 -66 -21 -85 -8 -18 -14 -43
-14 -55 0 -11 -7 -41 -15 -66 -8 -25 -30 -111 -50 -192 -52 -213 -113 -397
-165 -498 -10 -19 -33 -64 -52 -99 -43 -83 -109 -157 -154 -171 -40 -14 -99
-7 -153 16 -20 9 -51 22 -69 30 -81 35 -138 -2 -129 -84 2 -24 12 -51 21 -61
32 -35 21 -51 -34 -51 -69 0 -198 -28 -226 -48 -12 -9 -30 -34 -40 -54 -14
-32 -15 -42 -4 -68 41 -99 244 -160 535 -160 137 0 166 -3 200 -20 50 -24 75
-46 103 -91 31 -51 28 -99 -9 -166 -33 -59 -34 -83 -13 -242 8 -57 -5 -98 -83
-256 -81 -164 -80 -163 -139 -233 -60 -72 -109 -110 -200 -157 -60 -32 -76
-36 -119 -31 -86 8 -159 59 -227 156 -9 14 -36 45 -58 70 -46 50 -150 204
-197 291 -52 96 -97 237 -124 389 -6 30 -15 78 -21 105 -16 67 -15 342 1 430
31 178 55 264 99 355 38 78 60 109 126 176 84 84 190 155 299 200 108 45 229
107 303 155 163 105 311 251 377 371 100 185 136 228 186 228 15 0 37 -7 50
-16z m926 -1314 c134 -37 179 -58 280 -134 206 -153 295 -295 340 -541 19
-102 19 -157 0 -264 -18 -96 -25 -117 -72 -216 -40 -83 -47 -96 -93 -155 -90
-116 -243 -220 -404 -272 -82 -26 -280 -28 -381 -3 -226 55 -433 230 -544 460
-39 83 -67 183 -80 295 -19 149 9 295 80 426 69 128 162 227 286 308 76 49 91
56 193 92 89 31 290 33 395 4z m2395 1 c41 -10 95 -25 120 -34 191 -65 372
-244 443 -437 99 -270 72 -509 -84 -768 -113 -185 -320 -322 -559 -368 -95
-18 -136 -18 -235 1 -183 35 -317 107 -455 245 -81 81 -102 109 -143 191 -69
139 -79 182 -84 350 -4 125 -1 158 17 235 25 101 59 181 104 239 75 99 151
176 218 221 118 80 168 100 333 133 77 16 246 12 325 -8z m-3326 -10 c9 -15
-42 -105 -85 -149 -45 -48 -109 -73 -134 -52 -8 7 -15 18 -15 24 0 24 121 175
143 179 41 8 86 7 91 -2z m1988 -618 c63 -25 95 -52 102 -85 3 -17 11 -94 16
-172 17 -222 74 -383 193 -540 207 -274 483 -416 809 -416 119 0 261 20 348
50 118 40 267 138 384 253 117 114 122 114 76 -3 -12 -30 -26 -73 -31 -95 -6
-22 -14 -44 -20 -50 -5 -5 -9 -19 -9 -32 0 -12 -6 -37 -14 -55 -8 -18 -29 -73
-46 -123 -39 -108 -62 -164 -135 -330 -175 -395 -301 -558 -736 -956 -258
-237 -408 -328 -624 -379 -65 -16 -119 -20 -293 -20 -216 0 -296 10 -377 45
-16 8 -41 17 -55 21 -40 11 -180 108 -240 166 -164 158 -414 457 -546 653
-145 214 -204 304 -204 311 0 3 -20 35 -44 72 -97 150 -111 172 -143 231 -12
22 -35 60 -50 83 -15 24 -36 59 -47 78 -11 19 -30 53 -42 75 -75 132 -107 205
-90 205 2 0 33 -17 67 -39 84 -50 171 -90 239 -108 89 -23 271 -53 325 -53 60
0 243 33 305 56 123 43 252 128 354 233 104 106 135 150 199 281 83 171 105
269 106 461 1 140 0 138 76 178 48 25 90 27 147 4z m-3413 -744 c113 -48 255
-243 345 -474 67 -172 83 -200 155 -277 47 -51 82 -78 130 -100 75 -35 212
-68 283 -68 27 0 81 -6 121 -14 40 -8 92 -17 117 -20 68 -10 206 -54 287 -91
208 -97 343 -232 439 -440 41 -88 53 -142 61 -273 6 -103 -5 -159 -45 -232
-102 -189 -265 -309 -472 -349 -85 -17 -257 18 -341 68 -19 12 -41 24 -49 28
-36 16 -179 135 -222 185 -99 114 -181 238 -218 328 -12 30 -26 64 -32 74 -6
11 -14 31 -18 45 -5 14 -18 51 -29 81 -24 63 -28 98 -8 83 79 -64 290 -133
400 -133 59 0 189 32 215 52 70 54 76 128 14 173 -22 16 -50 21 -157 27 -150
8 -205 18 -295 54 -243 97 -400 214 -545 404 -28 36 -53 67 -56 70 -18 15
-124 235 -147 305 -38 114 -82 345 -82 433 0 39 5 57 21 73 24 24 50 22 128
-12z m4795 -1804 c9 -202 58 -472 107 -590 5 -11 18 -45 29 -75 24 -63 25 -67
76 -175 21 -44 55 -108 76 -143 21 -34 38 -64 38 -67 0 -13 -258 -109 -365
-135 -16 -4 -73 -19 -125 -33 -52 -13 -129 -31 -170 -40 -200 -41 -200 -41
-490 -74 -249 -29 -935 -19 -1125 16 -27 5 -104 17 -170 26 -66 10 -143 23
-172 31 -28 8 -60 14 -71 14 -11 0 -42 6 -68 14 -27 8 -78 22 -114 31 -62 16
-117 32 -205 60 -22 7 -74 23 -116 36 -123 37 -123 37 -48 117 173 184 223
254 281 392 43 104 51 129 71 205 36 139 46 196 53 312 8 140 15 160 45 123
11 -14 43 -52 72 -84 323 -370 439 -471 605 -525 156 -50 198 -56 422 -55 167
0 232 4 290 18 145 34 180 47 315 119 61 33 219 152 320 240 93 82 144 129
324 299 57 54 105 97 106 96 2 -2 6 -70 9 -153z m593 116 c84 -22 106 -37 237
-158 57 -52 124 -103 155 -119 57 -28 179 -64 218 -64 38 0 35 -17 -11 -62
-85 -82 -260 -150 -353 -135 -133 22 -204 55 -281 130 -55 55 -113 143 -138
211 -35 95 -64 188 -64 201 0 22 148 20 237 -4z"/>
<path d="M4032 3477 c-26 -28 -27 -40 -6 -72 35 -53 173 -17 174 45 0 24 -53
50 -102 50 -34 0 -50 -6 -66 -23z"/>
<path d="M4764 3471 c-17 -10 -37 -33 -44 -51 -12 -29 -12 -34 5 -46 22 -16
108 -19 136 -4 36 20 20 83 -28 108 -29 16 -33 15 -69 -7z"/>
<path d="M4075 2960 c-74 -14 -205 -74 -320 -149 -57 -37 -70 -44 -162 -91
-46 -23 -84 -46 -84 -51 -1 -5 -2 -13 -3 -18 -1 -5 17 -23 39 -41 22 -17 96
-87 165 -154 182 -178 280 -248 425 -303 125 -49 205 -63 346 -63 177 0 318
40 442 124 21 14 40 26 44 26 15 0 106 79 288 250 49 47 106 99 127 116 69 60
67 66 -20 109 -42 21 -102 53 -132 70 -244 142 -350 175 -554 175 -94 0 -136
-4 -178 -19 -49 -17 -58 -17 -94 -4 -21 8 -57 19 -79 23 -47 11 -193 11 -250
0z"/>
</g>
</svg>
